<svg xmlns="http://www.w3.org/2000/svg" width="192.268" height="61.071" viewBox="0 0 192.268 61.071"><defs><clipPath id="a"><path fill="none" d="M0 0h192.268v61.071H0z"/></clipPath></defs><g clip-path="url(#a)"><path d="M29.351.001h-2.339v22.427h-.444c-1.628-5.846-5.551-10.139-12.8-10.139C5.106 12.289 0 18.728 0 30.42c0 11.545 4.958 17.909 13.691 17.909 6.808 0 11.175-4.218 12.877-10.064h.444v9.251h5.032V2.701a2.7 2.7 0 00-2.693-2.7m-2.339 31.75c0 7.326-4.441 11.989-11.322 11.989-7.253 0-10.657-4.292-10.657-13.321 0-9.1 3.552-13.469 10.657-13.469 6.882 0 11.322 4.884 11.322 12.137zM29.417.012h-.01.019zm151.236 12.289c-6.142 0-10.879 3.774-12.728 9.695h-.592v-8.881l-2.327-.009a2.7 2.7 0 00-2.706 2.695v31.726h5.107V27.694c0-6.438 4.588-10.73 11.471-10.73 6.216 0 8.288 4 8.288 9.176v21.387h5.107v-22.5c0-7.549-3.552-12.729-11.619-12.729m-68.055.817h5.032v34.412h-5.032zM69.959 37.61l-4.515-1.332c-1.258 4.366-3.626 7.919-10.434 7.919-7.074 0-11.105-4.126-11.835-11.213a.9.9 0 01.893-1h25.96a34.216 34.216 0 00.148-3.626c0-9.473-5.18-15.837-15.319-15.837s-16.869 6.736-16.869 18.13c0 11.249 6.365 17.909 17.021 17.909 8.659 0 13.247-4.144 14.949-10.953M54.713 16.74c7.178 0 10.435 4.145 10.73 11.323H43.168c.74-7.548 4.884-11.323 11.545-11.323m86.14-4.365c-7.771 0-12.656 3.922-14.209 10.657l4.885 1.258c1.184-5.032 4.07-7.622 9.251-7.622 6.216 0 8.436 3.182 8.436 8.881v2.284a.9.9 0 01-.9.9h-10.942c-8.141 0-12.063 4.366-12.063 10.065 0 6.587 4.144 9.472 10.878 9.472 6.217 0 10.879-3.108 12.655-8.954h.592v8.214h4.811V25.474c0-8.51-4.071-13.1-13.394-13.1m8.362 22.5c0 5.254-4.588 9.176-11.618 9.176-5.476 0-7.327-2.738-7.327-5.7 0-3.848 2.739-5.846 7.7-5.846h11.248z"/><path d="M92.569 30.186v-.749l12.583-15.4v-.924h-4.42a2.7 2.7 0 00-2.216 1.163l-8.667 12.538a.9.9 0 01-1.478 0l-8.673-12.539a2.7 2.7 0 00-2.215-1.162h-4.357v.984l12.445 15.251v.879L61.145 61.071h1.922l25.3-28.231a.9.9 0 011.4.031l10.526 13.594a2.7 2.7 0 002.128 1.045h4.454v-.982zm19.956-24.487l-.5 2.089v.76h3.941a2.349 2.349 0 002.246-2.246l.5-2.089v-.76h-3.941a2.349 2.349 0 00-2.246 2.246"/></g></svg>